<?xml version="1.0" standalone="no"?>
<!DOCTYPE svg PUBLIC "-//W3C//DTD SVG 20010904//EN"
 "http://www.w3.org/TR/2001/REC-SVG-20010904/DTD/svg10.dtd">
<svg version="1.0" xmlns="http://www.w3.org/2000/svg"
 width="215.000000pt" height="215.000000pt" viewBox="0 0 215.000000 215.000000"
 preserveAspectRatio="xMidYMid meet">
<metadata>
Created by potrace 1.11, written by Peter Selinger 2001-2013
</metadata>
<g transform="translate(0.000000,215.000000) scale(0.100000,-0.100000)"
fill="#000000" stroke="none">
<path d="M10 2023 l0 -108 193 0 192 0 0 -940 0 -940 118 -3 117 -3 0 944 0
944 173 1 c94 0 182 1 193 1 21 1 22 5 21 106 l0 105 -504 0 -503 0 0 -107z"/>
<path d="M1180 1081 l0 -1052 278 1 c152 1 301 6 331 11 199 37 317 163 347
369 8 56 8 340 0 399 -22 163 -99 272 -229 323 -36 14 -39 17 -22 24 11 4 40
21 65 36 120 76 159 189 155 451 -3 179 -14 229 -68 319 -37 62 -93 105 -175
137 -65 24 -74 25 -374 29 l-308 4 0 -1051z m585 809 c42 -21 55 -35 79 -83
29 -57 30 -61 30 -215 0 -176 -14 -239 -62 -284 -57 -54 -86 -61 -247 -66
l-151 -4 2 333 c0 184 2 337 3 341 0 3 67 5 149 4 134 -1 151 -4 197 -26z m-9
-883 c64 -22 111 -70 135 -139 16 -46 18 -80 16 -258 -3 -167 -6 -212 -20
-240 -24 -50 -49 -76 -97 -101 -38 -20 -61 -23 -189 -26 -80 -2 -155 -1 -167
2 -20 4 -20 8 -20 393 l0 389 146 -2 c107 -1 158 -6 196 -18z"/>
</g>
</svg>
